<svg xmlns="http://www.w3.org/2000/svg" width="496.161" height="187.75" viewBox="0 0 496.161 187.75">
  <defs>
    <style>
      .cls-1 {
        fill-rule: evenodd;
      }
    </style>
  </defs>
  <path id="text_1" class="cls-1" d="M614.982,334.271h-3.5a45.293,45.293,0,0,1-5.45-.2v7.851a53.467,53.467,0,0,1,5.65-.3h3.3v10.5c0,0.85-.3,1-2.051,1a38.449,38.449,0,0,1-5.05-.45,28.5,28.5,0,0,1,2,7.751c1.65,0.1,3.2.15,4.5,0.15,6.9,0,8.55-1.2,8.55-6.351v-12.6h4a45.922,45.922,0,0,1,5.451.3v-7.951a42.463,42.463,0,0,1-5.451.3h-4v-2.3a68.121,68.121,0,0,0,7.951-10.451,17.546,17.546,0,0,1,1.1-1.45l-3.651-4.65a36.132,36.132,0,0,1-4.85.2h-9.75a42.69,42.69,0,0,1-6.051-.3v7.9c2.05-.15,3.7-0.2,5.951-0.2h7.55a34.024,34.024,0,0,1-3.8,5.051h-2.65a31.338,31.338,0,0,1,.25,4.65v1.55Zm-6.651,15.6c-2.4-2.15-3.2-2.8-5.5-4.65a56.534,56.534,0,0,0,3.85-19.1c0.1-2.251.1-2.251,0.15-3.8-1.2.1-2.3,0.15-3.9,0.15h-4.4c0.15-.85.25-1.45,0.4-2.4,0.75-5.3.75-5.3,0.9-5.95l-8.151-.6v0.85c0,1.1-.4,4.95-0.8,8.1h-0.9a28.145,28.145,0,0,1-4.45-.25v7.351a21.517,21.517,0,0,1,3.1-.2h0.95a75.269,75.269,0,0,1-4,13.051,73.218,73.218,0,0,1,7.3,4.95,29.211,29.211,0,0,1-8.15,6.95,39.758,39.758,0,0,1,4.8,6.551,33.848,33.848,0,0,0,9.3-8.7c1.75,1.55,2.55,2.3,4.9,4.65ZM594.38,339.221a98.528,98.528,0,0,0,2.6-9.85h2.45c-0.75,5.5-1.35,8.05-2.7,11.4Zm45.7-11.3c1.15-.05,1.5-0.05,3.75-0.1a105.751,105.751,0,0,0,13.051-.55c0.6,1.35,1,2.25,1.15,2.65a127.546,127.546,0,0,1-13.651.7,42.672,42.672,0,0,1-5.15-.2l0.35,7.4a37.4,37.4,0,0,1,4.35-.25c7.2-.2,12.951-0.55,17.2-1.1,1,1.6,1.75,2.8,2.3,3.55a33.165,33.165,0,0,0-6.9-.6,26.847,26.847,0,0,0-10.7,1.85,9.169,9.169,0,0,0-5.95,8.251,9.331,9.331,0,0,0,1.85,5.5c2.45,3.151,7.551,4.751,15.151,4.751a64.239,64.239,0,0,0,14-1.55,32.6,32.6,0,0,1,3.5-.7l-1.15-8.45c-4,1.9-10.151,3.1-15.9,3.1-5.3,0-7.9-.9-7.9-2.75,0-2.1,3.05-3.25,8.6-3.25,4.35,0,7.551.65,10.5,2.2l7.35-3.8a56.789,56.789,0,0,1-6.4-9.2c0.65-.15,2.95-0.55,3-0.55,5-1.05,5-1.05,6.15-1.2l-0.75-7.35c-2.3.85-4.7,1.4-11.65,2.65-0.2-.35-0.75-1.65-1.15-2.6,5-.8,5.05-0.85,7.95-1.451,2.75-.55,2.75-0.55,3.7-0.75l-0.7-7.3a93.3,93.3,0,0,1-13.551,2.8,22.562,22.562,0,0,1-1.55-5.2l-8.75,1.05c0.45,0.9,1.05,2.25,2.1,5-2.25.2-6.1,0.35-8.951,0.35a48.259,48.259,0,0,1-5.7-.25Zm57.2-13.751a33.3,33.3,0,0,1-.751,5.95,17.181,17.181,0,0,0-.45,2.1c-1,.05-1.25.05-1.8,0.05a40.875,40.875,0,0,1-7.3-.5v8h1.95c1.15,0.05,1.15.05,2.3,0.05h2.8a67.967,67.967,0,0,1-9.25,18.9l8.15,4.45a20.211,20.211,0,0,1,.95-1.95c1.95-3.9,2.4-4.8,3.451-7.1a102.858,102.858,0,0,0,5.45-14.5c1.25-.1,4-0.35,5.35-0.5,2.5-.3,2.5-0.3,3.7-0.4l-0.15-8.1a38.483,38.483,0,0,1-6.95,1.2c0.25-1.15.35-1.6,0.6-2.8a21.853,21.853,0,0,1,.95-4Zm34.652,12.2a83.4,83.4,0,0,0-15.051-6.751l-4.151,6.9a70.73,70.73,0,0,1,15.551,7.2Zm-0.45,22.9c-1.5-1.2-2.3-1.85-2.451-1.95a36.619,36.619,0,0,0-7.7-4.45,44.551,44.551,0,0,1-.4-5.8,23.233,23.233,0,0,1,.55-5.65l-8.25-.35c-0.2,2.25-.3,3.85-0.3,5.9,0,1.15.05,2.1,0.2,4a20.484,20.484,0,0,0-3.5-.3c-6.95,0-11.8,4.051-11.8,9.851a8.733,8.733,0,0,0,2.5,6.2c2.05,2.1,5.45,3.3,9.45,3.3s7.5-1.15,9.451-3.1a7.392,7.392,0,0,0,2.1-5.2,26.777,26.777,0,0,1,6.45,5.45Zm-18.2-.85a5.089,5.089,0,0,1,.1,1.1c0,2.1-1.3,3.2-3.8,3.2-2.15,0-3.55-.95-3.55-2.4,0-1.55,1.5-2.55,3.85-2.55A8.7,8.7,0,0,1,713.282,348.422Zm62.65-33.7a48.53,48.53,0,0,1-5.9.3h-22.9a51.826,51.826,0,0,1-5.951-.3v6.25a48.68,48.68,0,0,1,5.951-.25h22.9a48.278,48.278,0,0,1,5.9.25v-6.25Zm5.5,7.35a45.77,45.77,0,0,1-5.9.3H741.48a47.165,47.165,0,0,1-5.95-.3v6.751a49.746,49.746,0,0,1,6-.3h33.952a49.443,49.443,0,0,1,5.951.3V322.07Zm-5.651,7.9a48.444,48.444,0,0,1-5.3.2H746.73a50.071,50.071,0,0,1-5.35-.2v5.75a50.672,50.672,0,0,1,5.35-.2h23.752a52.078,52.078,0,0,1,5.3.2v-5.75Zm0,7a46.158,46.158,0,0,1-5.3.2H746.73a48.307,48.307,0,0,1-5.35-.2v5.751a51.281,51.281,0,0,1,5.35-.2h23.752a52.078,52.078,0,0,1,5.3.2v-5.751Zm-28,21.9h21.2v1.8h7.75a38.623,38.623,0,0,1-.2-4.851v-7.05c0-2.45.05-3.65,0.15-4.75a27.449,27.449,0,0,1-4.35.2h-27.9c-2.15,0-3.1-.05-4.25-0.15a38.589,38.589,0,0,1,.2,4.65v7c0,1.45-.05,3-0.2,4.951h7.6v-1.8Zm0-8.6h21.251v2.4H747.781v-2.4Zm64.15-7.4h12.1a44.507,44.507,0,0,1,5.3.2v-5.3a42.817,42.817,0,0,1-5.35.2H799.031v-6.5h4.9v2.4a23.362,23.362,0,0,1-.15,2.85c2.05-.05,3.1-0.1,4.35-0.1h12.7c1.35,0,3,.05,4.35.1a28.483,28.483,0,0,1-.15-3.35v-1.9h0.55a41.867,41.867,0,0,1,5.8.25v-6.35c-1.6.15-3.351,0.25-5.8,0.25h-0.55a17.3,17.3,0,0,1,.15-1.851h-4.95a11.4,11.4,0,0,1-.1-1.55h5.3a54.734,54.734,0,0,1,6.051.25v-6.65a50.09,50.09,0,0,1-6.051.3h-5.3a16.885,16.885,0,0,1,.15-2.45h-7.7a14.87,14.87,0,0,1,.15,2.45h-9a13.442,13.442,0,0,1,.15-2.45H796.23a12.907,12.907,0,0,1,.15,2.45h-4.95a51.839,51.839,0,0,1-6.05-.3v6.65a54.166,54.166,0,0,1,6.05-.25h4.95a12.528,12.528,0,0,1-.1,1.5h-4.8a18.364,18.364,0,0,1,.15,1.9h-1.55a31.338,31.338,0,0,1-4.65-.25v6.35a44.048,44.048,0,0,1,5.85-.25h0.35v6.75a41.579,41.579,0,0,1-.2,4.751c1.4-.05,3.2-0.1,4.35-0.1h8.5v1.45H791.73a51.651,51.651,0,0,1-6.2-.3v6.5a53.422,53.422,0,0,1,6.2-.3h7.1a38.887,38.887,0,0,1-14.351,4.35,22.258,22.258,0,0,1,3.85,6.351c7.45-1.85,11.4-3.751,16.1-7.551-0.1.8-.15,2.35-0.15,2.7v1.05a19.182,19.182,0,0,1-.35,3.9h8.3a16.364,16.364,0,0,1-.3-3.9v-1.1c-0.1-2.5-.15-2.65-0.15-2.65,4.451,3.7,9.251,5.8,17.1,7.5a29.23,29.23,0,0,1,3.7-6.8c-6.951-.65-11.351-1.8-14.951-3.85h7.65a51.916,51.916,0,0,1,6.151.3v-6.5a55.6,55.6,0,0,1-6.151.3h-13.4v-0.9Zm-8.1-18.8c0.05,0.6.05,0.75,0.1,1.551h-4.9a13.45,13.45,0,0,1,.1-1.551h4.7Zm0-.3a12.708,12.708,0,0,1-.1-1.55h9c0,0.65-.05,1.1-0.1,1.85h5.251c0.05,0.65.05,1.151,0.1,1.551h-7a10.666,10.666,0,0,1,.15-1.851h-7.3Zm7.15,7.551h7v1.45h-7v-1.45Zm27-4.45h0.75c0.7,0,1.05,0,1.75.05,2.15,0.05,2.15.05,4.3,0.05h1.6c-0.2.35-.2,0.35-0.95,1.6-0.75,1.2-2.75,4.1-3.85,5.45a34.33,34.33,0,0,1-5.3,5.2l6.35,6.3a31.773,31.773,0,0,1,4.8-5.051c3.5-3.05,6.95-4.8,9.5-4.8a2.066,2.066,0,0,1,2,1.25c-2,.9-2.5,1.1-3.7,1.7a22.026,22.026,0,0,0-7.2,5.351,9.3,9.3,0,0,0-2.451,6.3,8.04,8.04,0,0,0,3.951,7.1c2.7,1.6,6.25,2.3,11.9,2.3a98.682,98.682,0,0,0,12.051-.75,32.3,32.3,0,0,1,4.45-.45l-0.55-9a47.357,47.357,0,0,1-16,2.5c-4.85,0-6.7-.75-6.7-2.65a3.45,3.45,0,0,1,1.3-2.55,11.348,11.348,0,0,1,3.5-2.1l0.45-.2a41.042,41.042,0,0,1-.25,5.3l8.151-.25a31.023,31.023,0,0,1-.2-4.3c0-2.2,0-2.25-.05-3.6a82.582,82.582,0,0,1,12.751-3.4l-3.051-7.9a20.966,20.966,0,0,1-4,1.5c-1.6.5-2.95,0.95-3.1,1-2.65.9-2.65,0.9-3.5,1.2-1-3.25-3.5-4.85-7.651-4.85a14.754,14.754,0,0,0-6.35,1.5,27.088,27.088,0,0,0,2.4-3.7c5.1-.15,11.351-0.5,14.9-0.85q2.175-.225,4.5-0.45l-0.3-7.951a73.286,73.286,0,0,1-12.651,1.6c-2.55.15-2.55,0.15-3.05,0.2,0.05-.1.35-0.9,1-2.35a14.532,14.532,0,0,1,1.05-2.35l-9.15-.7a18.094,18.094,0,0,1-1.55,5.55h-1.4c-5.2,0-8.2-.2-10.351-0.7Zm49.4-8.5a35.094,35.094,0,0,1,.2,3.55c0.1,6.951.3,11.151,0.55,14.651,0.65,7.951,2,12.951,4.6,16.651,1.95,2.85,4.351,4.3,7.151,4.3,3.05,0,5.75-1.8,7.6-5.1a42.205,42.205,0,0,0,3.8-9.65,31.659,31.659,0,0,1-6.95-6.3,50.807,50.807,0,0,1-2.6,8.651c-0.5,1.3-1.05,1.95-1.6,1.95-2.1,0-3.7-8.451-3.7-19.651a62.2,62.2,0,0,1,.551-9.051h-9.6Zm25.051,5.3c6.2,7.851,9.651,17.7,10.2,28.9l8.951-3.3c-1.4-12.1-5.051-21.251-11.551-29.1Zm25.849,29.452c0.6-1,1.4-2,4.95-6.25v5.25a50.9,50.9,0,0,1-.45,7.651l9.051-.05c-0.25-1.951-.4-7.051-0.4-14.151,0-1.45,0-2.9.05-5.251a47.256,47.256,0,0,1,8.65-7.7,9.3,9.3,0,0,1,4.751-2.05,1.3,1.3,0,0,1,1.45,1.4,30.935,30.935,0,0,1-.9,5.15c-1.7,7.5-2.2,10.5-2.2,13.3,0,4.9,3.05,8.051,7.85,8.051s8.05-2.4,11.9-8.7a31.2,31.2,0,0,1-4.2-8.05,29.773,29.773,0,0,1-3,5.35c-0.95,1.4-2,2.25-2.75,2.25a1.236,1.236,0,0,1-1.2-1.45c0-1.25.6-4.4,2.15-10.7,1-4.2,1.3-5.85,1.3-7.55,0-4.7-3.2-7.8-8.05-7.8-4.4,0-9.551,2.8-15.8,8.6a7.4,7.4,0,0,0,.05-1.1l0.05-.7a18.068,18.068,0,0,1,3.15-3.4l-2.75-2.6a71.248,71.248,0,0,1,.6-7.4l-8.851-.2a21.64,21.64,0,0,1,.2,3.3c0,1.15-.05,2.4-0.1,3.45a13.21,13.21,0,0,1-.05,1.6c-2.1.15-4.2,0.25-5.45,0.25-0.85,0-1.45-.05-2.6-0.15l0.4,7.9a58.08,58.08,0,0,1,7.45-.65c-0.05,3.25-.1,4.7-0.15,5.5-0.25.3-2.1,2.1-5.45,5.5a38.125,38.125,0,0,1-3.5,3.05Zm48.7-24.151a29.674,29.674,0,0,1,4.3-.65l17.3-1.55a20.46,20.46,0,0,0-4.9,4.25,17.116,17.116,0,0,0-4.249,11.3c0,6.35,3.049,10.95,8.949,13.7,3.2,1.45,6.95,2.251,12.65,2.8a15.143,15.143,0,0,1,1.85.25l1.15-9.551a8.636,8.636,0,0,1-1.5.1,26.2,26.2,0,0,1-9.55-1.8c-2.85-1.35-4.2-3.3-4.2-6.15,0-4.1,2.95-8.351,7.95-11.4a23.435,23.435,0,0,1,11.45-3.5,7.6,7.6,0,0,1,1.4.1l-0.45-9.051c-0.9.2-1.35,0.25-5.5,0.4-15.25.55-18.9,0.75-26.7,1.25-5.451.35-7.251,0.45-8.551,0.45-0.4,0-1.05,0-1.9-.05Zm77.1-15.3a18.067,18.067,0,0,1-2.5,2.9,110.48,110.48,0,0,1-13.15,11.051,34.5,34.5,0,0,0-4.55,3.75,7.314,7.314,0,0,0-1.85,4.8,8.175,8.175,0,0,0,.75,3.3c0.65,1.25,1.55,2.151,4.05,4.1,8.7,6.75,10.45,8.2,14.75,12.25a37.649,37.649,0,0,1,4.95,5.451l7.15-7.3c-0.8-.7-1.25-1.05-1.55-1.3-5.55-4.85-9.8-8.3-15.25-12.251-4.7-3.45-4.7-3.45-4.7-4.05,0-.45.3-0.75,1.65-1.75,5.3-3.9,9.35-7.15,12.25-9.7,4.65-4.15,5.15-4.6,6.35-5.35ZM612.531,391.42a53.317,53.317,0,0,1-8.2,1.3c0.35-1.8.6-3.25,0.8-4.3a17.139,17.139,0,0,1,.65-2.9l-9.351-.7v0.8a49.689,49.689,0,0,1-.85,7.45h-0.95a52.037,52.037,0,0,1-7.6-.5l-0.15,8.151a9.277,9.277,0,0,1,1.1-.05c0.4,0,.6,0,1.9.05,0.95,0.05,2.3.1,3.45,0.1h0.8a106.114,106.114,0,0,1-8.4,25.6l9.2,3.351c4.951-15.151,6.051-19.2,8-29.152,1.45-.1,2.15-0.15,4.55-0.4l0.5,7.1a67.116,67.116,0,0,1,14.051-1.25,45.059,45.059,0,0,1,6.55.35l-0.15-8.45c-1.05-.05-2.1-0.05-2.45-0.05a79.627,79.627,0,0,0-13.251.75Zm-5.3,18.6c-2.8,4-3.95,6.8-3.95,9.7q0,9.45,14.7,9.451a60.4,60.4,0,0,0,9.75-.8c1.35-.15,1.7-0.2,2.7-0.3l-0.6-8.751a37.713,37.713,0,0,1-11.851,1.95c-4.2,0-6.251-1.1-6.251-3.4,0-1.55.85-3.2,2.751-5.45Zm8.351-21.9a34.749,34.749,0,0,1,5.05,7.551l4.75-2.3a34.343,34.343,0,0,0-5.05-7.4Zm6.9-3.1a37.484,37.484,0,0,1,5,7.4l4.6-2.25a37.5,37.5,0,0,0-5.1-7.2Zm16.9,16.4c0.9-.1,1.15-0.1,2.55-0.15a166.717,166.717,0,0,0,17.6-1.15c0.3,0.55.4,0.75,0.85,1.55a36.156,36.156,0,0,0,3.1,5.25,20.155,20.155,0,0,0-6.851-1c-6.6,0-11.451,1.55-14.4,4.65a10.531,10.531,0,0,0-2.9,7.2,10.405,10.405,0,0,0,3.9,8.15c2.9,2.3,7.7,3.451,14.5,3.451a55,55,0,0,0,14.651-1.9c1-.25,1.4-0.3,2.3-0.5l-1.1-8.95c-4,2.05-10.2,3.4-15.9,3.4-6.1,0-9.2-1.35-9.2-4s3.35-4.25,8.95-4.25a26.429,26.429,0,0,1,5.5.5,8.749,8.749,0,0,1,5.351,2.75l8.3-3.35a96.067,96.067,0,0,1-8.55-14c2-.3,4-0.65,6.25-1.1,2.65-.5,2.65-0.5,4.1-0.7l-0.9-8.4a73.2,73.2,0,0,1-12.35,2.75,38.215,38.215,0,0,1-2.2-7.05l-9,1.1c0.65,1.4,1.2,2.75,2.05,5,0.5,1.3.5,1.35,0.75,1.95a116.119,116.119,0,0,1-12.5.7,45.252,45.252,0,0,1-5.5-.25Zm48-13.051a35.094,35.094,0,0,1,.2,3.55c0.1,6.951.3,11.151,0.55,14.651,0.65,7.951,2,12.951,4.6,16.651,1.95,2.85,4.351,4.3,7.151,4.3,3.05,0,5.75-1.8,7.6-5.1a42.205,42.205,0,0,0,3.8-9.65,31.659,31.659,0,0,1-6.95-6.3,50.807,50.807,0,0,1-2.6,8.651c-0.5,1.3-1.05,1.95-1.6,1.95-2.1,0-3.7-8.451-3.7-19.651a62.2,62.2,0,0,1,.551-9.051h-9.6Zm25.051,5.3c6.2,7.851,9.651,17.7,10.2,28.9l8.951-3.3c-1.4-12.1-5.051-21.251-11.551-29.1Zm51.751,3.5a11.008,11.008,0,0,1-.65,2.85,18.9,18.9,0,0,0-2.351-.1,26.41,26.41,0,0,0-4.85.45c0.05-1.05.05-1.2,0.05-1.5,0.05-.85.05-0.85,0.1-1.35,5-.2,12.6-0.8,17.4-1.5,1.15-.15,1.35-0.15,2.15-0.2l-0.35-8.1c-4.05,1.15-10.65,2.05-18.751,2.5a28.5,28.5,0,0,1,.8-5.25l-8.6-.35a12.785,12.785,0,0,1,.1,2.1c0,0.55,0,1.1-.05,1.6-0.1,1.5-.1,1.5-0.15,2.15l-0.7.05h-0.3a46.337,46.337,0,0,1-9.3-.75l0.1,7.9c0.7-.05.9-0.05,1.6-0.05,0.9,0,1.7,0,2.45.05,3.7,0.05,3.7.05,5.851,0.1-0.05,2.15-.05,2.65-0.05,4.35a19.533,19.533,0,0,0-6.951,4.55,16.363,16.363,0,0,0-5,11.6c0,6.25,3.75,10.2,9.65,10.2,3.8,0,8.151-1.951,11.6-5.2a27,27,0,0,1,2.8,6.6,30.434,30.434,0,0,0,10.1-2.3c6.05-2.7,9.4-7.55,9.4-13.6a12.029,12.029,0,0,0-4.1-9.4,12.73,12.73,0,0,0-5.05-2.8,25.232,25.232,0,0,1,1.05-2.5Zm-4.351,24.451a39.35,39.35,0,0,0,8.751-13.051c2.25,1.15,3.2,2.55,3.2,4.8a7.662,7.662,0,0,1-4.75,6.7A19.315,19.315,0,0,1,759.831,421.622Zm-11.05-11.151a56.855,56.855,0,0,0,.75,9.051,4.7,4.7,0,0,1-2.75.95c-1.4,0-2.151-1.05-2.151-2.9C744.63,414.822,746.08,412.372,748.781,410.471Zm7.5-3.45a13.008,13.008,0,0,1,3.95-.55,7.384,7.384,0,0,1,1.05.05,32.529,32.529,0,0,1-4.7,7.7A61.307,61.307,0,0,1,756.281,407.021Zm41.15-21.2a25.07,25.07,0,0,1,.8,3.3c1.5,7.6,1.75,8.8,2.95,13.151a32.226,32.226,0,0,0-6.251,3.8,13.4,13.4,0,0,0-5.15,10.3,11.115,11.115,0,0,0,4.6,9.4c3.3,2.1,8.351,3.151,15.551,3.151a111.525,111.525,0,0,0,12.6-.85c2.55-.3,3.1-0.351,4.35-0.4l-0.65-9.5a21.828,21.828,0,0,1-2.65.75,73.011,73.011,0,0,1-14.651,1.6c-6.95,0-9.95-1.35-9.95-4.4,0-2.95,3.3-5.6,9.7-7.851a113.155,113.155,0,0,1,17.9-4.65l-2.85-8.9a10.139,10.139,0,0,1-2.05.751c-1.8.55-1.8,0.55-6.55,1.95-2.051.55-3.5,1.05-5.751,1.85a86.923,86.923,0,0,1-2.85-14.8Zm53.85,16.451h0.6c0.15,0,.55,0,1.15.05,4.2,0.15,7.1.25,8.6,0.25,1,0,1.7,0,2.851-.05,0.05,1.75.05,2.45,0.1,4.15,0.1,2.35.1,2.6,0.15,4a14.662,14.662,0,0,0-2.9-.3,13.231,13.231,0,0,0-7.7,2.051,8.813,8.813,0,0,0-3.8,7.35c0,5.8,4.35,9.3,11.7,9.3,6.4,0,10.751-2.851,10.751-7.1v-0.4a25.353,25.353,0,0,1,5.95,4.75l3.151-8.5a6.423,6.423,0,0,1-.95-0.6,40.192,40.192,0,0,0-8.051-4.55c-0.35-5.751-.4-6.751-0.45-10.651,2.5-.3,4.75-0.6,6.3-0.95a13.59,13.59,0,0,1,1.851-.3l-0.3-7.951a46.635,46.635,0,0,1-7.951,1.55,58.414,58.414,0,0,1,.4-8.75l-8.65.05a13.755,13.755,0,0,1,.25,2.8v6.5c-1.7.05-2.551,0.05-3.6,0.05a44.632,44.632,0,0,1-9.35-.8Zm13.651,16.7c0,2-1.1,2.9-3.5,2.9-2,0-3.3-.85-3.3-2.15,0-1.4,1.4-2.3,3.7-2.3a8.037,8.037,0,0,1,3.051.6ZM840.28,385.42v0.25a31.315,31.315,0,0,1-.6,4.35,99.7,99.7,0,0,0-2,20.2,97.871,97.871,0,0,0,1.1,15.151c0.35,3.051.35,3.051,0.4,3.951l8.451-.35c-0.1-1.1-.15-1.751-0.15-2a45.547,45.547,0,0,1,2.1-15.25l-3.851-1.3a91.152,91.152,0,0,1,2.4-19.4,28.379,28.379,0,0,1,1.45-4.95Zm55.25,4.2c-3.05,0-4.45-.05-6.3-0.2a47.517,47.517,0,0,1,.25,6.051v29.4a44.591,44.591,0,0,1-.3,5.8h8v-2.15h22.751v2.15h8.15a38.632,38.632,0,0,1-.3-5.851V395.471a45.623,45.623,0,0,1,.25-6.051c-1.85.15-3.25,0.2-6.3,0.2h-11.3c0.35-.75.55-1.15,0.75-1.65,1.25-3.1,1.25-3.1,1.6-3.95l-8.9-.6a27.334,27.334,0,0,1-1.95,6.2h-6.4Zm1.7,7h22.8v3.7h-22.8v-3.7Zm0,10.6h22.8v3.6h-22.8v-3.6Zm0,10.551h22.8v3.7h-22.8v-3.7Zm65-26.452v-2.25a40.263,40.263,0,0,1,.3-5.35h-8.5a42.487,42.487,0,0,1,.3,5.25v2.35h-11.6a58.312,58.312,0,0,1-5.9-.2c0.15,1.6.25,3.25,0.25,5.2v27.1c0,2.9-.1,5.151-0.3,7.5h7.7v-2.05h27.8v2.05h7.751c-0.2-2.6-.3-5-0.3-7.4v-26.8a49.472,49.472,0,0,1,.25-5.651,54.217,54.217,0,0,1-6.251.25h-11.5Zm0,30.5v-8.7h10.051v8.7H962.231Zm0-15.551v-7.9h10.051v7.9H962.231Zm-7.9-7.9v7.9H944.48v-7.9h9.851Zm0,14.751v8.7H944.48v-8.7h9.851Zm32.5-14.251a55.322,55.322,0,0,1,7.05-.95c9.35-.75,11.1-0.9,12.2-1l2.35-.25a20.46,20.46,0,0,0-4.9,4.25,17.116,17.116,0,0,0-4.249,11.3c0,6.35,3.049,10.95,8.949,13.7,3.2,1.45,6.95,2.3,12.65,2.8a12.788,12.788,0,0,1,1.85.25l1.15-9.5c-0.75.05-1.1,0.05-1.5,0.05a26.415,26.415,0,0,1-9.55-1.8c-2.85-1.35-4.2-3.3-4.2-6.2,0-4.1,2.95-8.3,7.95-11.35a23.435,23.435,0,0,1,11.45-3.5,7.6,7.6,0,0,1,1.4.1l-0.45-9.051a4.216,4.216,0,0,1-1.15.2c-0.25,0-.55.05-2.25,0.1l-2.1.1-5.15.2c-9.5.35-14.35,0.6-21.549,1.05-5.451.35-7.251,0.45-8.551,0.45-0.4,0-1.05,0-1.9-.05Zm30.15,4.35a31.09,31.09,0,0,1,4.85,7.4l4.8-2.2a32.233,32.233,0,0,0-4.85-7.25Zm7-2.95a35.8,35.8,0,0,1,4.75,7.2l4.65-2.15a34.557,34.557,0,0,0-4.9-7.05Zm12.35-1.6c3.85-.55,12-1,22.35-1.3a8.135,8.135,0,0,1,.05,1.2v1.55a11.292,11.292,0,0,0-3.9-.55c-6.9,0-11.6,3.9-11.6,9.6,0,5.351,4.1,9.151,9.9,9.151a9.126,9.126,0,0,0,6.7-2.35,8.283,8.283,0,0,1-3.7,3.95c-2.4,1.5-5.25,2.3-10.3,3.05a22.514,22.514,0,0,1,4.75,7.9,40.367,40.367,0,0,0,10.05-4.051c5.35-3.35,8.25-8.25,8.25-13.85a15.9,15.9,0,0,0-2-8.351v-7.4c2-.05,2.35-0.05,5-0.05a83.312,83.312,0,0,1,9,.25l-0.05-8.2c-2,.2-5.7.3-14,0.35a33.845,33.845,0,0,1,.25-5.1h-8.85a28.144,28.144,0,0,1,.35,5.3c-4.65.15-18.1,0.5-19.45,0.5-1.25,0-1.8-.05-3.05-0.15Zm19.1,7.2c2,0,3.3,1.05,3.3,2.6,0,1.7-1.65,3-3.8,3-1.9,0-3.3-1.15-3.3-2.7C1051.63,407.071,1053.23,405.871,1055.43,405.871Zm-436.748,67.5a63.564,63.564,0,0,1,9.55,6.1l3.951-6.3a54.419,54.419,0,0,0-8.651-4.9,71,71,0,0,0,8.051-7.7l-5.651-5.05a36.3,36.3,0,0,1-7.25,7.4v-0.65a30.04,30.04,0,0,1,.15-4.3,28.339,28.339,0,0,1-4.05.15h-3.4c0.25-.6.35-0.85,0.55-1.3a31.179,31.179,0,0,1,1.3-2.9l-7.951-.65a23.888,23.888,0,0,1-1.5,4.85h-1.5a27.961,27.961,0,0,1-4.05-.15,37.959,37.959,0,0,1,.15,4.3v11.8c0,1.75-.05,3.4-0.15,4.45,1.1-.1,2.35-0.15,3.95-0.15h2.3v2.4h-12.3a52.116,52.116,0,0,1-6.35-.3v7.351a53.264,53.264,0,0,1,6.35-.3h6.8c-3.4,2.5-7.951,4.3-14.251,5.75a31.223,31.223,0,0,1,4.35,6.851,41.478,41.478,0,0,0,8.151-3.3,26.82,26.82,0,0,0,7.45-5.9,20.14,20.14,0,0,0-.15,2.45v2.2a32.488,32.488,0,0,1-.35,5.051h8.35a16.92,16.92,0,0,1-.5-5.051v-2.25c0-.25-0.05-1.4-0.05-1.75,0-.3-0.05-0.35-0.05-0.7a27.366,27.366,0,0,0,7.1,5.55,36.212,36.212,0,0,0,9.05,3.751,41.8,41.8,0,0,1,4.051-7.151,40.479,40.479,0,0,1-14.5-5.5h7a54.23,54.23,0,0,1,6.4.3v-7.351a45.419,45.419,0,0,1-6.3.3H612.181v-2.4h2.751c1.55,0,2.75.05,3.9,0.15a42.308,42.308,0,0,1-.15-4.5v-0.65Zm0-.7v-8.9l3.5,3.851Zm-13.4-9.051h6.45v2.051h-6.45V463.62Zm0,7.2h6.45v2.1h-6.45v-2.1Zm-19.6-10.051a36.936,36.936,0,0,1,7.85,7.5l4.851-5.751a52.317,52.317,0,0,0-7.8-6.95Zm10.8,6.4c-4.8,2.85-8.3,4.45-11.65,5.2l2.55,7.05c0.6-.3,1.3-0.65,2.15-1a51.536,51.536,0,0,0,8.8-4.8Zm45.85-11.451a23.483,23.483,0,0,1,.25,3.8c0,1.95-.1,6.7-0.2,11.751-0.25,10.05-.25,10.05-0.25,11.351,0,7,.95,10.2,3.8,12.95,2.7,2.551,6.5,3.8,11.6,3.8,6.551,0,11.751-2.151,15.7-6.451,2.75-3.05,4.4-6.7,6.3-14.2-3.2-1.3-4.851-2.35-8.551-5.25a38.015,38.015,0,0,1-2,9.051c-1.95,5.4-5.951,8.45-11.1,8.45-2.75,0-4.9-.9-5.85-2.4-0.85-1.35-1.05-2.85-1.05-7.851,0-8.35.6-21.7,1.15-24.851Zm57.1-1.25c-0.35,2-1.3,5.05-5.351,16.7-3.05,8.8-4.8,13.8-5.2,15.051-3,8.7-3.1,8.95-4,10.7l9.25,2.751a61.066,61.066,0,0,1,3.9-11.5c1.95-4.2,4.35-6.5,6.65-6.5,1.55,0,2.1.8,2.1,3.25v0.85c-0.05,2.15-.05,3.1-0.05,3.55,0,3.55.7,5.7,2.4,7.45,1.65,1.751,4.1,2.6,7.3,2.6a13.566,13.566,0,0,0,11.15-5.351c2.2-2.95,3.551-6.35,4.5-11.55a26.14,26.14,0,0,1-7.951-5,27.62,27.62,0,0,1-2.05,9.251c-1.2,2.75-2.65,4.05-4.65,4.05-1.8,0-2.4-1.1-2.4-4.6-0.1-6.2-.1-6.6-0.6-8.4a6.536,6.536,0,0,0-6.651-4.8,10.323,10.323,0,0,0-6.2,2.2c5.8-14.951,6.55-16.7,7.6-18.651Zm37.4,14.4a55.322,55.322,0,0,1,7.05-.95c9.351-.75,11.1-0.9,12.2-1l2.35-.25a20.46,20.46,0,0,0-4.9,4.25,17.118,17.118,0,0,0-4.25,11.3c0,6.35,3.05,10.95,8.95,13.7,3.2,1.45,6.951,2.3,12.651,2.8a12.788,12.788,0,0,1,1.85.25l1.15-9.5c-0.75.05-1.1,0.05-1.5,0.05a26.425,26.425,0,0,1-9.551-1.8c-2.85-1.35-4.2-3.3-4.2-6.2,0-4.1,2.95-8.3,7.951-11.35a23.435,23.435,0,0,1,11.45-3.5,7.6,7.6,0,0,1,1.4.1l-0.45-9.051a4.216,4.216,0,0,1-1.15.2c-0.25,0-.55.05-2.25,0.1l-2.1.1-5.15.2c-9.5.35-14.351,0.6-21.551,1.05-5.451.35-7.251,0.45-8.551,0.45-0.4,0-1.05,0-1.9-.05Zm30.152,4.35a31.09,31.09,0,0,1,4.85,7.4l4.8-2.2a32.233,32.233,0,0,0-4.85-7.25Zm7-2.95a35.8,35.8,0,0,1,4.75,7.2l4.651-2.15a34.518,34.518,0,0,0-4.9-7.05Zm40.1-16.6a18.077,18.077,0,0,1-2.5,2.9,110.48,110.48,0,0,1-13.15,11.051,34.472,34.472,0,0,0-4.551,3.75,7.314,7.314,0,0,0-1.85,4.8,8.175,8.175,0,0,0,.75,3.3c0.65,1.25,1.55,2.151,4.051,4.1,8.7,6.75,10.45,8.2,14.75,12.25a37.609,37.609,0,0,1,4.951,5.451l7.15-7.3c-0.8-.7-1.25-1.05-1.55-1.3-5.55-4.85-9.8-8.3-15.251-12.251-4.7-3.45-4.7-3.45-4.7-4.05,0-.45.3-0.75,1.65-1.75,5.3-3.9,9.351-7.15,12.251-9.7,4.65-4.15,5.15-4.6,6.35-5.35Zm48.449,7.75a53.317,53.317,0,0,1-8.2,1.3c0.35-1.8.6-3.25,0.8-4.3a17.139,17.139,0,0,1,.65-2.9l-9.351-.7v0.8a49.689,49.689,0,0,1-.85,7.45h-0.95a52.037,52.037,0,0,1-7.6-.5l-0.15,8.151a9.277,9.277,0,0,1,1.1-.05c0.4,0,.6,0,1.9.05,0.95,0.05,2.3.1,3.45,0.1h0.8a106.114,106.114,0,0,1-8.4,25.6l9.2,3.351c4.951-15.151,6.051-19.2,8-29.152,1.45-.1,2.15-0.15,4.55-0.4l0.5,7.1a67.122,67.122,0,0,1,14.051-1.25,45.059,45.059,0,0,1,6.55.35l-0.15-8.45c-1.05-.05-2.1-0.05-2.45-0.05a79.627,79.627,0,0,0-13.251.75Zm-5.3,18.6c-2.8,4-3.95,6.8-3.95,9.7q0,9.45,14.7,9.451a60.4,60.4,0,0,0,9.75-.8c1.35-.15,1.7-0.2,2.7-0.3l-0.6-8.751a37.713,37.713,0,0,1-11.851,1.95c-4.2,0-6.251-1.1-6.251-3.4,0-1.55.85-3.2,2.751-5.45Zm8.351-21.9a34.749,34.749,0,0,1,5.05,7.551l4.75-2.3a34.343,34.343,0,0,0-5.05-7.4Zm6.9-3.1a37.484,37.484,0,0,1,5,7.4l4.6-2.25a37.5,37.5,0,0,0-5.1-7.2Zm16.9,16.4c0.9-.1,1.15-0.1,2.55-0.15a166.717,166.717,0,0,0,17.6-1.15c0.3,0.55.4,0.75,0.85,1.55a36.156,36.156,0,0,0,3.1,5.25,20.155,20.155,0,0,0-6.851-1c-6.6,0-11.451,1.55-14.4,4.65a10.531,10.531,0,0,0-2.9,7.2,10.405,10.405,0,0,0,3.9,8.15c2.9,2.3,7.7,3.451,14.5,3.451a55,55,0,0,0,14.651-1.9c1-.25,1.4-0.3,2.3-0.5l-1.1-8.95c-4,2.05-10.2,3.4-15.9,3.4-6.1,0-9.2-1.35-9.2-4s3.35-4.25,8.95-4.25a26.429,26.429,0,0,1,5.5.5,8.749,8.749,0,0,1,5.351,2.75l8.3-3.35a96.067,96.067,0,0,1-8.55-14c2-.3,4-0.65,6.25-1.1,2.65-.5,2.65-0.5,4.1-0.7l-0.9-8.4a73.2,73.2,0,0,1-12.35,2.75,38.139,38.139,0,0,1-2.2-7.05l-9,1.1c0.65,1.4,1.2,2.75,2.05,5,0.5,1.3.5,1.35,0.75,1.95a116.119,116.119,0,0,1-12.5.7,45.252,45.252,0,0,1-5.5-.25Zm48-13.051a35.094,35.094,0,0,1,.2,3.55c0.1,6.951.3,11.151,0.55,14.651,0.65,7.951,2,12.951,4.6,16.651,1.95,2.85,4.351,4.3,7.151,4.3,3.05,0,5.75-1.8,7.6-5.1a42.205,42.205,0,0,0,3.8-9.65,31.659,31.659,0,0,1-6.95-6.3,50.807,50.807,0,0,1-2.6,8.651c-0.5,1.3-1.05,1.95-1.6,1.95-2.1,0-3.7-8.451-3.7-19.651a62.2,62.2,0,0,1,.551-9.051h-9.6Zm25.051,5.3c6.2,7.851,9.651,17.7,10.2,28.9l8.951-3.3c-1.4-12.1-5.051-21.251-11.551-29.1Zm23.649,7.051a62.7,62.7,0,0,1,7.3-.7c-0.15,3.65-.15,4.15-0.15,5.6-1.3,1.15-2.05,1.85-3.6,3.4-2.9,2.8-4.35,4.051-5.45,4.651l3.9,8.35a42.287,42.287,0,0,1,2.85-3.5,16.315,16.315,0,0,0,1.3-1.6,5.376,5.376,0,0,1,.65-0.75l0.3-.35v0.7c0,0.35,0,.4-0.05,1.85,0,1.1,0,1.1-.05,6.1a27.06,27.06,0,0,1-.35,5.2h9a58.322,58.322,0,0,1-.3-6.8l-0.1-13.851c5.85-5.6,11.3-8.95,14.7-8.95a4.178,4.178,0,0,1,4.2,3.25,22.856,22.856,0,0,1,.65,5.55,21.077,21.077,0,0,1-.25,3.6,14.223,14.223,0,0,0-5.6-1.051c-6.35,0-10.65,3.551-10.65,8.851s4.35,8.851,10.95,8.851a14.173,14.173,0,0,0,7.95-2.2,6.52,6.52,0,0,0,2.5-2.7,36.739,36.739,0,0,1,3.9,3.7l3.1-8.5c-2.65-1.9-4.1-2.9-4.25-3a39.855,39.855,0,0,0,.6-7.551c0-11.3-4.05-17.151-11.85-17.151-3.7,0-7.1,1.3-11.5,4.351a28.314,28.314,0,0,0-4.45,3.45c0-.2,0-0.8.05-1.7a23.087,23.087,0,0,1,3.1-3.151l-2.8-2.65a42.06,42.06,0,0,1,.6-7.25l-8.65-.2c0.1,2.05.1,2.1,0.1,2.6,0,1.8-.05,2.8-0.15,5.6a15.4,15.4,0,0,0-2,.15c-0.3.05-3.05,0.1-4.25,0.1a9.438,9.438,0,0,1-1.6-.1Zm33.05,19.1h0.05a6.157,6.157,0,0,1-.75,1.2,4.63,4.63,0,0,1-3.25,1.2c-1.75,0-3-.75-3-1.9,0-1.1,1.15-1.9,2.8-1.9A6.689,6.689,0,0,1,1019.13,489.822Zm25.45-7.95a9.5,9.5,0,1,0,9.5,9.5A9.5,9.5,0,0,0,1044.58,481.872Zm0,5.15a4.35,4.35,0,1,1-4.35,4.35A4.353,4.353,0,0,1,1044.58,487.022Z" transform="translate(-584.719 -313.531)"/>
</svg>
